<svg width="16" height="16" viewBox="0 0 16 16" fill="none" xmlns="http://www.w3.org/2000/svg">
<path d="M5.17195 3.75737C4.78143 3.36685 4.14826 3.36685 3.75774 3.75737C3.36721 4.1479 3.36721 4.78106 3.75774 5.17158L5.17195 3.75737ZM10.8288 12.2427C11.2193 12.6332 11.8525 12.6332 12.243 12.2427C12.6335 11.8521 12.6335 11.219 12.243 10.8284L10.8288 12.2427ZM3.75774 5.17158L10.8288 12.2427L12.243 10.8284L5.17195 3.75737L3.75774 5.17158Z" fill="white"/>
<path d="M3.75774 10.8285C3.36721 11.219 3.36721 11.8522 3.75774 12.2427C4.14826 12.6332 4.78143 12.6332 5.17195 12.2427L3.75774 10.8285ZM12.243 5.17162C12.6335 4.7811 12.6335 4.14793 12.243 3.75741C11.8525 3.36688 11.2193 3.36688 10.8288 3.75741L12.243 5.17162ZM5.17195 12.2427L12.243 5.17162L10.8288 3.75741L3.75774 10.8285L5.17195 12.2427Z" fill="white"/>
</svg>
