<svg width="4" height="8" viewBox="0 0 4 8" fill="none" xmlns="http://www.w3.org/2000/svg">
<path d="M1.67221 5.59302C1.44418 5.32946 1.33017 5 1.33017 4.60465C1.33017 4.28682 1.40934 4.00388 1.5677 3.75581C1.72605 3.5 1.90024 3.30233 2.09026 3.16279C2.28662 3.02326 2.46397 2.85659 2.62233 2.66279C2.78068 2.46899 2.85986 2.26357 2.85986 2.04651C2.85986 1.8062 2.78068 1.60853 2.62233 1.45349C2.47031 1.2907 2.24861 1.2093 1.95724 1.2093C1.43785 1.2093 0.997625 1.48062 0.63658 2.02326L0 1.15116C0.513064 0.383721 1.20348 0 2.07126 0C2.66033 0 3.12906 0.170543 3.47743 0.511628C3.82581 0.852713 4 1.2907 4 1.82558C4 2.14341 3.93983 2.43023 3.81948 2.68605C3.70546 2.93411 3.56295 3.13953 3.39192 3.30233C3.22724 3.45736 3.06255 3.60465 2.89786 3.74419C2.73318 3.88372 2.59066 4.03876 2.47031 4.2093C2.35629 4.37209 2.29929 4.54651 2.29929 4.73256C2.29929 4.93411 2.36896 5.10853 2.50831 5.25581L1.67221 5.59302ZM2.47981 7.76744C2.35313 7.92248 2.19794 8 2.01425 8C1.83056 8 1.67221 7.92248 1.53919 7.76744C1.41251 7.60465 1.34917 7.41085 1.34917 7.18605C1.34917 6.96124 1.41251 6.77132 1.53919 6.61628C1.67221 6.45349 1.83056 6.37209 2.01425 6.37209C2.19794 6.37209 2.35313 6.45349 2.47981 6.61628C2.61283 6.77132 2.67933 6.96124 2.67933 7.18605C2.67933 7.41085 2.61283 7.60465 2.47981 7.76744Z" fill="white"/>
</svg>
