<svg viewBox="0 0 32 32" fill="none" xmlns="http://www.w3.org/2000/svg">
<circle cx="16" cy="16" r="16" fill="white"/>
<g clip-path="url(#clip0_605_11581)">
<path d="M23.6821 16.1837C23.6821 15.6399 23.638 15.0931 23.5439 14.5581H15.998V17.6388H20.3192C20.1399 18.6323 19.5637 19.5113 18.7201 20.0698V22.0687H21.2981C22.8119 20.6753 23.6821 18.6176 23.6821 16.1837Z" fill="#4285F4"/>
<path d="M15.9986 24C18.1562 24 19.9758 23.2915 21.3016 22.0687L18.7236 20.0698C18.0063 20.5578 17.0804 20.8341 16.0015 20.8341C13.9145 20.8341 12.1449 19.426 11.5099 17.533H8.84961V19.5936C10.2077 22.295 12.9738 24 15.9986 24Z" fill="#34A853"/>
<path d="M11.5064 17.533C11.1713 16.5394 11.1713 15.4636 11.5064 14.47V12.4094H8.84905C7.71438 14.6699 7.71438 17.3331 8.84905 19.5936L11.5064 17.533Z" fill="#FBBC04"/>
<path d="M15.9986 11.1659C17.1391 11.1483 18.2415 11.5774 19.0675 12.3652L21.3515 10.0812C19.9053 8.72312 17.9857 7.97647 15.9986 7.99999C12.9738 7.99999 10.2077 9.70493 8.84961 12.4093L11.507 14.47C12.139 12.5739 13.9115 11.1659 15.9986 11.1659Z" fill="#EA4335"/>
</g>
<defs>
<clipPath id="clip0_605_11581">
<rect width="15.6825" height="16" fill="white" transform="translate(8 8)"/>
</clipPath>
</defs>
</svg>
