<svg xmlns="http://www.w3.org/2000/svg" width="48" height="48" fill="none" viewBox="0 1 48 48" part="icon blz-icon"><path fill="#593810" fill-rule="evenodd" d="M24 12.17c7 0 12.8 5.8 12.8 12.8 0 7-5.8 12.8-12.8 12.8-7 0-12.8-5.8-12.8-12.8 0-7 5.8-12.8 12.8-12.8Z" clip-rule="evenodd"></path><path fill="#FF9C00" fill-rule="evenodd" d="m37.4 30.17 8.6-5.2-8.6-5.2c-.4-1.2-1-2-1.6-3l2-5.4-5.4 2c-1-.6-2-1.2-3-1.6L24 2.97l-5.2 8.6c-1.2.4-2 1-3 1.6l-5.4-2 2 5.4c-.6 1-1.2 2-1.6 3L2 24.97l8.6 5.2c.4 1.2 1 2 1.6 3l-2 5.399 5.4-2c1 .6 2 1.2 3 1.6l5.4 8.8 5.2-8.6c1.2-.4 2-1 3-1.6l5.4 2-2-5.4c.8-1 1.4-2.2 1.8-3.2ZM24 36.77c-6.6 0-11.8-5.2-11.8-11.8 0-6.6 5.4-11.8 11.8-11.8 6.6 0 11.8 5.4 11.8 11.8 0 6.6-5.2 11.8-11.8 11.8Z" clip-rule="evenodd"></path><path fill="#39CCFF" fill-rule="evenodd" d="M32 24.569c0 .2-.2.4-.4.6-.2.4.2.4.2.6 0 .4 0 1-.2 1.4 0 .4-.2.8-.4 1.2-.2.4-.4.6-.6 1 0 .4-.2.8-.4 1.2-.4.4-.6.6-1 .8-.4.2-.4.6-.8 1l-1.2.6c-.4.2-.8.2-1.2.4-.4.2-1 .2-1.4.4-.4 0-1 0-1.4.2-.4 0-.8.4-1.2.4-.4 0-.8-.4-1.2-.4-.4 0-.8-.2-1.2-.4-.4-.2-.8-.2-1.2-.4-.4 0-.8-.4-1-.8 0-.4 1.2-.4 1.6-.6.6-.4 1.4-.2 2-.6.2-.2.4-.4.6-.4.2-.2.4-.2.8-.2.4-.2 1-.2 1.6-.4l1.2-.6c.4-.2.6-.4 1-.8.4-.2.6-.6 1-1l.6-1.2c.4-.4.8-.4.6-.8-.2-.4-.2-1-.2-1.4 0-1 .2-2-.4-2.8-.4-.4-.6-.8-.8-1.2-.2-.2-.2-.4-.2-.6 0-.4.2-.4-.2-.4-.2 0-.4.2-.6.2h-.8c-.6 0-1.2 0-1.6.2-.4.2-1 .4-1.2.6-.4.2-.6.6-1 .8-.2 0-.4.2-.6.4 0 .2-.2.4-.2.6-.2.4-.2 1 0 1.6.2.8.8 2 1.8 1.6 1-.4-.8-1.8 0-2.2.4-.2 1-.2 1.4 0 .6 0 1 .2 1.4.4.4.2.2.8.4 1.2.4.4.4.8.4 1.4 0 1-.6 1.8-1.4 2.2-.4.2-1 0-1.4.2-.4.2-.8.4-1.2.4-.2 0-.4-.2-.6-.2h-.6c-.4 0-.6-.6-1-.6 0-.4-.6-.8-.8-1-.4-.4-.6-.8-1-1.2-.4-.4-.6-.8-.8-1.2-.2-.4 0-.8-.2-1.2 0-.2-.2-.4-.2-.6v-.8c0-.4-.2-.8-.2-1.2 0-.4 0-.4.4-.4.2-.2.4-.4.6-.4-.2-.8 0-1 .4-1.4 0-.2.2-.4.4-.6.2-.2.2-.4.4-.4.4-.4.8-.6 1.2-1 .8-.6 1.6-1.2 2.8-.8.6.2.8-.2 1.2-.2.4 0 .8.4 1.2.4.4.2.8.2 1.2.4.4.2 1 .4 1.4.6 1 .4 1.2 1.2 1.8 1.8.4.6 1.6 1.4 1.2 2.2 0 .2 0 .6.2.8.2.4.2.6.2 1 .2.6.8 1.2.8 1.6Z" clip-rule="evenodd"></path></svg>